<mxfile host="app.diagrams.net" agent="Mozilla/5.0 (Windows NT 10.0; Win64; x64) AppleWebKit/537.36 (KHTML, like Gecko) Chrome/131.0.0.0 Safari/537.36" version="26.0.5">
  <diagram name="Page-1" id="HMsB6TKXoMAhHZ_bmKSh">
    <mxGraphModel dx="2600" dy="2048" grid="1" gridSize="10" guides="1" tooltips="1" connect="1" arrows="1" fold="1" page="1" pageScale="1" pageWidth="850" pageHeight="1100" math="0" shadow="0">
      <root>
        <mxCell id="0" />
        <mxCell id="1" parent="0" />
        <mxCell id="3SE-ewiuEP-njzqvmuow-1" value="" style="rounded=1;whiteSpace=wrap;html=1;fontSize=16;" vertex="1" parent="1">
          <mxGeometry x="-320" y="-840" width="400" height="230" as="geometry" />
        </mxCell>
        <mxCell id="3SE-ewiuEP-njzqvmuow-2" value="" style="rounded=1;whiteSpace=wrap;html=1;fontSize=16;" vertex="1" parent="1">
          <mxGeometry x="-840" y="-1070" width="1000" height="100" as="geometry" />
        </mxCell>
        <mxCell id="3SE-ewiuEP-njzqvmuow-3" style="edgeStyle=orthogonalEdgeStyle;rounded=0;orthogonalLoop=1;jettySize=auto;html=1;exitX=0.5;exitY=1;exitDx=0;exitDy=0;entryX=0.5;entryY=0;entryDx=0;entryDy=0;fontSize=16;" edge="1" parent="1" source="3SE-ewiuEP-njzqvmuow-4" target="3SE-ewiuEP-njzqvmuow-13">
          <mxGeometry relative="1" as="geometry" />
        </mxCell>
        <mxCell id="3SE-ewiuEP-njzqvmuow-4" value="encoder" style="rounded=1;whiteSpace=wrap;html=1;fontSize=16;" vertex="1" parent="1">
          <mxGeometry x="-480" y="-1050" width="120" height="60" as="geometry" />
        </mxCell>
        <mxCell id="3SE-ewiuEP-njzqvmuow-5" value="" style="edgeStyle=orthogonalEdgeStyle;rounded=0;orthogonalLoop=1;jettySize=auto;html=1;fontSize=16;" edge="1" parent="1" source="3SE-ewiuEP-njzqvmuow-6" target="3SE-ewiuEP-njzqvmuow-20">
          <mxGeometry relative="1" as="geometry" />
        </mxCell>
        <mxCell id="3SE-ewiuEP-njzqvmuow-6" value="IMU" style="rounded=1;whiteSpace=wrap;html=1;fontSize=16;" vertex="1" parent="1">
          <mxGeometry x="-315" y="-1050" width="120" height="60" as="geometry" />
        </mxCell>
        <mxCell id="3SE-ewiuEP-njzqvmuow-7" value="" style="edgeStyle=orthogonalEdgeStyle;rounded=0;orthogonalLoop=1;jettySize=auto;html=1;fontSize=16;" edge="1" parent="1" source="3SE-ewiuEP-njzqvmuow-8" target="3SE-ewiuEP-njzqvmuow-25">
          <mxGeometry relative="1" as="geometry" />
        </mxCell>
        <mxCell id="3SE-ewiuEP-njzqvmuow-8" value="LiDAR" style="rounded=1;whiteSpace=wrap;html=1;fontSize=16;" vertex="1" parent="1">
          <mxGeometry x="-800" y="-1050" width="120" height="60" as="geometry" />
        </mxCell>
        <mxCell id="3SE-ewiuEP-njzqvmuow-9" value="" style="edgeStyle=orthogonalEdgeStyle;rounded=0;orthogonalLoop=1;jettySize=auto;html=1;fontSize=16;" edge="1" parent="1" source="3SE-ewiuEP-njzqvmuow-10" target="3SE-ewiuEP-njzqvmuow-22">
          <mxGeometry relative="1" as="geometry" />
        </mxCell>
        <mxCell id="3SE-ewiuEP-njzqvmuow-10" value="URDF" style="rounded=1;whiteSpace=wrap;html=1;fontSize=16;" vertex="1" parent="1">
          <mxGeometry x="-640" y="-1050" width="120" height="60" as="geometry" />
        </mxCell>
        <mxCell id="3SE-ewiuEP-njzqvmuow-11" style="edgeStyle=orthogonalEdgeStyle;rounded=0;orthogonalLoop=1;jettySize=auto;html=1;exitX=0.5;exitY=1;exitDx=0;exitDy=0;entryX=0;entryY=0.5;entryDx=0;entryDy=0;fontSize=16;" edge="1" parent="1" source="3SE-ewiuEP-njzqvmuow-13" target="3SE-ewiuEP-njzqvmuow-15">
          <mxGeometry relative="1" as="geometry" />
        </mxCell>
        <mxCell id="3SE-ewiuEP-njzqvmuow-12" style="edgeStyle=orthogonalEdgeStyle;rounded=0;orthogonalLoop=1;jettySize=auto;html=1;exitX=0.5;exitY=1;exitDx=0;exitDy=0;entryX=0.25;entryY=0;entryDx=0;entryDy=0;fontSize=16;" edge="1" parent="1" source="3SE-ewiuEP-njzqvmuow-13" target="3SE-ewiuEP-njzqvmuow-39">
          <mxGeometry relative="1" as="geometry">
            <Array as="points">
              <mxPoint x="-420" y="-790" />
              <mxPoint x="-330" y="-790" />
              <mxPoint x="-330" y="-730" />
              <mxPoint x="-130" y="-730" />
            </Array>
          </mxGeometry>
        </mxCell>
        <mxCell id="3SE-ewiuEP-njzqvmuow-13" value="custom controller node" style="whiteSpace=wrap;html=1;rounded=1;fontSize=16;" vertex="1" parent="1">
          <mxGeometry x="-480" y="-930" width="120" height="60" as="geometry" />
        </mxCell>
        <mxCell id="3SE-ewiuEP-njzqvmuow-14" style="edgeStyle=orthogonalEdgeStyle;rounded=0;orthogonalLoop=1;jettySize=auto;html=1;exitX=0.5;exitY=1;exitDx=0;exitDy=0;entryX=1;entryY=0.5;entryDx=0;entryDy=0;fontSize=16;strokeColor=#AF1235;strokeWidth=5;" edge="1" parent="1" source="3SE-ewiuEP-njzqvmuow-15" target="3SE-ewiuEP-njzqvmuow-58">
          <mxGeometry relative="1" as="geometry" />
        </mxCell>
        <mxCell id="3SE-ewiuEP-njzqvmuow-15" value="EKF_Local" style="rounded=1;whiteSpace=wrap;html=1;fontSize=16;" vertex="1" parent="1">
          <mxGeometry x="-300" y="-820" width="120" height="60" as="geometry" />
        </mxCell>
        <mxCell id="3SE-ewiuEP-njzqvmuow-16" value="INPUTS" style="text;html=1;align=center;verticalAlign=middle;whiteSpace=wrap;rounded=0;fontSize=16;" vertex="1" parent="1">
          <mxGeometry x="-480" y="-1100" width="60" height="30" as="geometry" />
        </mxCell>
        <mxCell id="3SE-ewiuEP-njzqvmuow-17" value="ROBOT LOCALIZATION" style="text;html=1;align=center;verticalAlign=middle;whiteSpace=wrap;rounded=0;fontSize=16;" vertex="1" parent="1">
          <mxGeometry x="-321" y="-646" width="170" height="30" as="geometry" />
        </mxCell>
        <mxCell id="3SE-ewiuEP-njzqvmuow-18" style="edgeStyle=orthogonalEdgeStyle;rounded=0;orthogonalLoop=1;jettySize=auto;html=1;exitX=0.5;exitY=1;exitDx=0;exitDy=0;entryX=0.419;entryY=0.009;entryDx=0;entryDy=0;fontSize=16;entryPerimeter=0;" edge="1" parent="1" source="3SE-ewiuEP-njzqvmuow-20" target="3SE-ewiuEP-njzqvmuow-39">
          <mxGeometry relative="1" as="geometry">
            <Array as="points">
              <mxPoint x="-255" y="-860" />
              <mxPoint x="-110" y="-860" />
              <mxPoint x="-110" y="-699" />
            </Array>
          </mxGeometry>
        </mxCell>
        <mxCell id="3SE-ewiuEP-njzqvmuow-19" style="edgeStyle=orthogonalEdgeStyle;rounded=0;orthogonalLoop=1;jettySize=auto;html=1;exitX=0.5;exitY=1;exitDx=0;exitDy=0;entryX=0.38;entryY=0;entryDx=0;entryDy=0;entryPerimeter=0;fontSize=16;" edge="1" parent="1" source="3SE-ewiuEP-njzqvmuow-20" target="3SE-ewiuEP-njzqvmuow-15">
          <mxGeometry relative="1" as="geometry" />
        </mxCell>
        <mxCell id="3SE-ewiuEP-njzqvmuow-20" value="IMU publisher" style="whiteSpace=wrap;html=1;rounded=1;fontSize=16;" vertex="1" parent="1">
          <mxGeometry x="-315" y="-930" width="120" height="60" as="geometry" />
        </mxCell>
        <mxCell id="3SE-ewiuEP-njzqvmuow-21" value="" style="edgeStyle=orthogonalEdgeStyle;rounded=0;orthogonalLoop=1;jettySize=auto;html=1;fontSize=16;" edge="1" parent="1" source="3SE-ewiuEP-njzqvmuow-22" target="3SE-ewiuEP-njzqvmuow-29">
          <mxGeometry relative="1" as="geometry" />
        </mxCell>
        <mxCell id="3SE-ewiuEP-njzqvmuow-22" value="ROBOT STATE PUBLISHER" style="whiteSpace=wrap;html=1;rounded=1;fontSize=16;" vertex="1" parent="1">
          <mxGeometry x="-650" y="-930" width="140" height="60" as="geometry" />
        </mxCell>
        <mxCell id="3SE-ewiuEP-njzqvmuow-23" style="edgeStyle=orthogonalEdgeStyle;rounded=0;orthogonalLoop=1;jettySize=auto;html=1;exitX=0;exitY=0.5;exitDx=0;exitDy=0;entryX=0;entryY=0.5;entryDx=0;entryDy=0;fontSize=16;" edge="1" parent="1" source="3SE-ewiuEP-njzqvmuow-29" target="3SE-ewiuEP-njzqvmuow-22">
          <mxGeometry relative="1" as="geometry" />
        </mxCell>
        <mxCell id="3SE-ewiuEP-njzqvmuow-24" style="edgeStyle=orthogonalEdgeStyle;rounded=0;orthogonalLoop=1;jettySize=auto;html=1;exitX=0.5;exitY=1;exitDx=0;exitDy=0;fontSize=16;" edge="1" parent="1" source="3SE-ewiuEP-njzqvmuow-29" target="3SE-ewiuEP-njzqvmuow-29">
          <mxGeometry relative="1" as="geometry" />
        </mxCell>
        <mxCell id="3SE-ewiuEP-njzqvmuow-25" value="sllidar_ros2" style="whiteSpace=wrap;html=1;rounded=1;fontSize=16;" vertex="1" parent="1">
          <mxGeometry x="-795" y="-930" width="110" height="60" as="geometry" />
        </mxCell>
        <mxCell id="3SE-ewiuEP-njzqvmuow-26" value="" style="edgeStyle=orthogonalEdgeStyle;rounded=0;orthogonalLoop=1;jettySize=auto;html=1;entryX=0.5;entryY=0;entryDx=0;entryDy=0;fontSize=16;" edge="1" parent="1" source="3SE-ewiuEP-njzqvmuow-22" target="3SE-ewiuEP-njzqvmuow-29">
          <mxGeometry relative="1" as="geometry">
            <mxPoint x="-640" y="-900" as="sourcePoint" />
            <mxPoint x="-350" y="-740" as="targetPoint" />
          </mxGeometry>
        </mxCell>
        <mxCell id="3SE-ewiuEP-njzqvmuow-28" style="edgeStyle=orthogonalEdgeStyle;rounded=0;orthogonalLoop=1;jettySize=auto;html=1;exitX=0.5;exitY=1;exitDx=0;exitDy=0;entryX=0;entryY=0.5;entryDx=0;entryDy=0;fontSize=16;strokeColor=#32FF45;strokeWidth=5;" edge="1" parent="1" source="3SE-ewiuEP-njzqvmuow-29" target="3SE-ewiuEP-njzqvmuow-58">
          <mxGeometry relative="1" as="geometry" />
        </mxCell>
        <mxCell id="3SE-ewiuEP-njzqvmuow-29" value="JOINT STATE PUBLISHER" style="whiteSpace=wrap;html=1;rounded=1;fontSize=16;" vertex="1" parent="1">
          <mxGeometry x="-650" y="-820" width="140" height="60" as="geometry" />
        </mxCell>
        <mxCell id="3SE-ewiuEP-njzqvmuow-30" style="edgeStyle=orthogonalEdgeStyle;rounded=0;orthogonalLoop=1;jettySize=auto;html=1;exitX=0.5;exitY=1;exitDx=0;exitDy=0;entryX=0.5;entryY=0;entryDx=0;entryDy=0;fontSize=16;" edge="1" parent="1" source="3SE-ewiuEP-njzqvmuow-31" target="3SE-ewiuEP-njzqvmuow-33">
          <mxGeometry relative="1" as="geometry" />
        </mxCell>
        <mxCell id="3SE-ewiuEP-njzqvmuow-31" value="GNSS" style="rounded=1;whiteSpace=wrap;html=1;fontSize=16;" vertex="1" parent="1">
          <mxGeometry x="-160" y="-1050" width="120" height="60" as="geometry" />
        </mxCell>
        <mxCell id="3SE-ewiuEP-njzqvmuow-32" style="edgeStyle=orthogonalEdgeStyle;rounded=0;orthogonalLoop=1;jettySize=auto;html=1;exitX=0.5;exitY=1;exitDx=0;exitDy=0;entryX=0.428;entryY=-0.022;entryDx=0;entryDy=0;fontSize=16;entryPerimeter=0;" edge="1" parent="1" source="3SE-ewiuEP-njzqvmuow-33" target="3SE-ewiuEP-njzqvmuow-36">
          <mxGeometry relative="1" as="geometry">
            <Array as="points">
              <mxPoint x="-100" y="-860" />
              <mxPoint x="1" y="-860" />
            </Array>
          </mxGeometry>
        </mxCell>
        <mxCell id="3SE-ewiuEP-njzqvmuow-33" value="nmea navsat driver" style="rounded=1;whiteSpace=wrap;html=1;fontSize=16;" vertex="1" parent="1">
          <mxGeometry x="-160" y="-930" width="120" height="60" as="geometry" />
        </mxCell>
        <mxCell id="3SE-ewiuEP-njzqvmuow-34" style="edgeStyle=orthogonalEdgeStyle;rounded=0;orthogonalLoop=1;jettySize=auto;html=1;exitX=0.5;exitY=1;exitDx=0;exitDy=0;entryX=1;entryY=0.5;entryDx=0;entryDy=0;fontSize=16;" edge="1" parent="1" source="3SE-ewiuEP-njzqvmuow-36" target="3SE-ewiuEP-njzqvmuow-39">
          <mxGeometry relative="1" as="geometry" />
        </mxCell>
        <mxCell id="3SE-ewiuEP-njzqvmuow-36" value="navsat transform node" style="rounded=1;whiteSpace=wrap;html=1;fontSize=16;" vertex="1" parent="1">
          <mxGeometry x="-50" y="-780" width="120" height="60" as="geometry" />
        </mxCell>
        <mxCell id="3SE-ewiuEP-njzqvmuow-37" style="edgeStyle=orthogonalEdgeStyle;rounded=0;orthogonalLoop=1;jettySize=auto;html=1;exitX=0.75;exitY=0;exitDx=0;exitDy=0;entryX=0;entryY=0.5;entryDx=0;entryDy=0;fontSize=16;" edge="1" parent="1" source="3SE-ewiuEP-njzqvmuow-39" target="3SE-ewiuEP-njzqvmuow-36">
          <mxGeometry relative="1" as="geometry" />
        </mxCell>
        <mxCell id="3SE-ewiuEP-njzqvmuow-38" style="edgeStyle=orthogonalEdgeStyle;rounded=0;orthogonalLoop=1;jettySize=auto;html=1;exitX=0;exitY=0.75;exitDx=0;exitDy=0;entryX=1;entryY=0.75;entryDx=0;entryDy=0;strokeColor=light-dark(#3333ff, #ededed);strokeWidth=5;" edge="1" parent="1" source="3SE-ewiuEP-njzqvmuow-39" target="3SE-ewiuEP-njzqvmuow-58">
          <mxGeometry relative="1" as="geometry" />
        </mxCell>
        <mxCell id="3SE-ewiuEP-njzqvmuow-39" value="EKF_Global" style="rounded=1;whiteSpace=wrap;html=1;fontSize=16;" vertex="1" parent="1">
          <mxGeometry x="-160" y="-700" width="120" height="60" as="geometry" />
        </mxCell>
        <mxCell id="3SE-ewiuEP-njzqvmuow-40" value="" style="rounded=1;whiteSpace=wrap;html=1;fontSize=16;" vertex="1" parent="1">
          <mxGeometry x="-840" y="-550" width="875" height="450" as="geometry" />
        </mxCell>
        <mxCell id="3SE-ewiuEP-njzqvmuow-41" value="" style="rounded=1;whiteSpace=wrap;html=1;fontSize=16;" vertex="1" parent="1">
          <mxGeometry x="270" y="-1040" width="550" height="700" as="geometry" />
        </mxCell>
        <mxCell id="3SE-ewiuEP-njzqvmuow-42" value="TF" style="text;html=1;align=center;verticalAlign=middle;whiteSpace=wrap;rounded=0;fontSize=16;" vertex="1" parent="1">
          <mxGeometry x="449" y="-1070" width="60" height="30" as="geometry" />
        </mxCell>
        <mxCell id="3SE-ewiuEP-njzqvmuow-43" value="" style="edgeStyle=orthogonalEdgeStyle;rounded=0;orthogonalLoop=1;jettySize=auto;html=1;fontSize=16;fillColor=#f8cecc;strokeColor=#3333FF;strokeWidth=5;" edge="1" parent="1" source="3SE-ewiuEP-njzqvmuow-44" target="3SE-ewiuEP-njzqvmuow-46">
          <mxGeometry relative="1" as="geometry" />
        </mxCell>
        <mxCell id="3SE-ewiuEP-njzqvmuow-44" value="map" style="rounded=1;whiteSpace=wrap;html=1;fontSize=16;" vertex="1" parent="1">
          <mxGeometry x="412" y="-1030" width="120" height="60" as="geometry" />
        </mxCell>
        <mxCell id="3SE-ewiuEP-njzqvmuow-45" value="" style="edgeStyle=orthogonalEdgeStyle;rounded=0;orthogonalLoop=1;jettySize=auto;html=1;fontSize=16;strokeColor=#AF1235;strokeWidth=5;" edge="1" parent="1" source="3SE-ewiuEP-njzqvmuow-46" target="3SE-ewiuEP-njzqvmuow-48">
          <mxGeometry relative="1" as="geometry" />
        </mxCell>
        <mxCell id="3SE-ewiuEP-njzqvmuow-46" value="odom" style="whiteSpace=wrap;html=1;rounded=1;fontSize=16;" vertex="1" parent="1">
          <mxGeometry x="412" y="-890" width="120" height="60" as="geometry" />
        </mxCell>
        <mxCell id="3SE-ewiuEP-njzqvmuow-47" value="" style="edgeStyle=orthogonalEdgeStyle;rounded=0;orthogonalLoop=1;jettySize=auto;html=1;fontSize=16;strokeColor=#32FF45;strokeWidth=5;" edge="1" parent="1" source="3SE-ewiuEP-njzqvmuow-48" target="3SE-ewiuEP-njzqvmuow-53">
          <mxGeometry relative="1" as="geometry" />
        </mxCell>
        <mxCell id="3SE-ewiuEP-njzqvmuow-48" value="base_footprint" style="whiteSpace=wrap;html=1;rounded=1;fontSize=16;" vertex="1" parent="1">
          <mxGeometry x="412" y="-750" width="120" height="60" as="geometry" />
        </mxCell>
        <mxCell id="3SE-ewiuEP-njzqvmuow-49" style="edgeStyle=orthogonalEdgeStyle;rounded=0;orthogonalLoop=1;jettySize=auto;html=1;exitX=0.5;exitY=1;exitDx=0;exitDy=0;entryX=0.5;entryY=0;entryDx=0;entryDy=0;fontSize=16;strokeColor=#32FF45;strokeWidth=5;" edge="1" parent="1" source="3SE-ewiuEP-njzqvmuow-53" target="3SE-ewiuEP-njzqvmuow-56">
          <mxGeometry relative="1" as="geometry" />
        </mxCell>
        <mxCell id="3SE-ewiuEP-njzqvmuow-50" style="edgeStyle=orthogonalEdgeStyle;rounded=0;orthogonalLoop=1;jettySize=auto;html=1;exitX=0.5;exitY=1;exitDx=0;exitDy=0;entryX=0.5;entryY=0;entryDx=0;entryDy=0;fontSize=16;strokeColor=#32FF45;strokeWidth=5;" edge="1" parent="1" source="3SE-ewiuEP-njzqvmuow-53" target="3SE-ewiuEP-njzqvmuow-54">
          <mxGeometry relative="1" as="geometry" />
        </mxCell>
        <mxCell id="3SE-ewiuEP-njzqvmuow-51" style="edgeStyle=orthogonalEdgeStyle;rounded=0;orthogonalLoop=1;jettySize=auto;html=1;exitX=0.5;exitY=1;exitDx=0;exitDy=0;entryX=0.5;entryY=0;entryDx=0;entryDy=0;fontSize=16;strokeColor=#32FF45;strokeWidth=5;" edge="1" parent="1" source="3SE-ewiuEP-njzqvmuow-53" target="3SE-ewiuEP-njzqvmuow-55">
          <mxGeometry relative="1" as="geometry" />
        </mxCell>
        <mxCell id="3SE-ewiuEP-njzqvmuow-52" style="edgeStyle=orthogonalEdgeStyle;rounded=0;orthogonalLoop=1;jettySize=auto;html=1;exitX=0.5;exitY=1;exitDx=0;exitDy=0;entryX=0.5;entryY=0;entryDx=0;entryDy=0;fontSize=16;strokeColor=#32FF45;strokeWidth=5;" edge="1" parent="1" source="3SE-ewiuEP-njzqvmuow-53" target="3SE-ewiuEP-njzqvmuow-57">
          <mxGeometry relative="1" as="geometry" />
        </mxCell>
        <mxCell id="3SE-ewiuEP-njzqvmuow-53" value="base_link" style="whiteSpace=wrap;html=1;rounded=1;fontSize=16;" vertex="1" parent="1">
          <mxGeometry x="412" y="-610" width="120" height="60" as="geometry" />
        </mxCell>
        <mxCell id="3SE-ewiuEP-njzqvmuow-54" value="left wheel" style="whiteSpace=wrap;html=1;rounded=1;fontSize=16;" vertex="1" parent="1">
          <mxGeometry x="290" y="-440" width="120" height="60" as="geometry" />
        </mxCell>
        <mxCell id="3SE-ewiuEP-njzqvmuow-55" value="IMU" style="whiteSpace=wrap;html=1;rounded=1;fontSize=16;" vertex="1" parent="1">
          <mxGeometry x="549" y="-440" width="120" height="60" as="geometry" />
        </mxCell>
        <mxCell id="3SE-ewiuEP-njzqvmuow-56" value="right wheel" style="whiteSpace=wrap;html=1;rounded=1;fontSize=16;" vertex="1" parent="1">
          <mxGeometry x="419" y="-440" width="120" height="60" as="geometry" />
        </mxCell>
        <mxCell id="3SE-ewiuEP-njzqvmuow-57" value="LiDAR" style="whiteSpace=wrap;html=1;rounded=1;fontSize=16;" vertex="1" parent="1">
          <mxGeometry x="680" y="-440" width="120" height="60" as="geometry" />
        </mxCell>
        <mxCell id="3SE-ewiuEP-njzqvmuow-58" value="dynamic TF" style="rounded=1;whiteSpace=wrap;html=1;fontSize=16;" vertex="1" parent="1">
          <mxGeometry x="-500" y="-740" width="120" height="60" as="geometry" />
        </mxCell>
        <mxCell id="3SE-ewiuEP-njzqvmuow-60" style="edgeStyle=orthogonalEdgeStyle;rounded=0;orthogonalLoop=1;jettySize=auto;html=1;exitX=0.5;exitY=1;exitDx=0;exitDy=0;entryX=0.5;entryY=0;entryDx=0;entryDy=0;" edge="1" parent="1" source="3SE-ewiuEP-njzqvmuow-61" target="3SE-ewiuEP-njzqvmuow-75">
          <mxGeometry relative="1" as="geometry" />
        </mxCell>
        <mxCell id="3SE-ewiuEP-njzqvmuow-61" value="Global costmap" style="rounded=1;whiteSpace=wrap;html=1;fontSize=16;" vertex="1" parent="1">
          <mxGeometry x="-600" y="-510" width="120" height="60" as="geometry" />
        </mxCell>
        <mxCell id="3SE-ewiuEP-njzqvmuow-62" style="edgeStyle=orthogonalEdgeStyle;rounded=0;orthogonalLoop=1;jettySize=auto;html=1;exitX=0.5;exitY=1;exitDx=0;exitDy=0;entryX=0.5;entryY=0;entryDx=0;entryDy=0;" edge="1" parent="1" source="3SE-ewiuEP-njzqvmuow-64" target="3SE-ewiuEP-njzqvmuow-80">
          <mxGeometry relative="1" as="geometry" />
        </mxCell>
        <mxCell id="3SE-ewiuEP-njzqvmuow-63" style="edgeStyle=orthogonalEdgeStyle;rounded=0;orthogonalLoop=1;jettySize=auto;html=1;exitX=0.5;exitY=1;exitDx=0;exitDy=0;entryX=0.5;entryY=0;entryDx=0;entryDy=0;" edge="1" parent="1" source="3SE-ewiuEP-njzqvmuow-64" target="3SE-ewiuEP-njzqvmuow-77">
          <mxGeometry relative="1" as="geometry" />
        </mxCell>
        <mxCell id="3SE-ewiuEP-njzqvmuow-64" value="Local costmap" style="rounded=1;whiteSpace=wrap;html=1;fontSize=16;" vertex="1" parent="1">
          <mxGeometry x="-770" y="-510" width="120" height="60" as="geometry" />
        </mxCell>
        <mxCell id="3SE-ewiuEP-njzqvmuow-65" style="edgeStyle=orthogonalEdgeStyle;rounded=0;orthogonalLoop=1;jettySize=auto;html=1;exitX=0.5;exitY=1;exitDx=0;exitDy=0;entryX=0.5;entryY=0;entryDx=0;entryDy=0;fontSize=16;" edge="1" parent="1" source="3SE-ewiuEP-njzqvmuow-67" target="3SE-ewiuEP-njzqvmuow-61">
          <mxGeometry relative="1" as="geometry">
            <Array as="points">
              <mxPoint x="60" y="-940" />
              <mxPoint x="110" y="-940" />
              <mxPoint x="110" y="-580" />
              <mxPoint x="-540" y="-580" />
            </Array>
          </mxGeometry>
        </mxCell>
        <mxCell id="3SE-ewiuEP-njzqvmuow-66" style="edgeStyle=orthogonalEdgeStyle;rounded=0;orthogonalLoop=1;jettySize=auto;html=1;exitX=0.5;exitY=1;exitDx=0;exitDy=0;entryX=1;entryY=0.5;entryDx=0;entryDy=0;" edge="1" parent="1" source="3SE-ewiuEP-njzqvmuow-67" target="3SE-ewiuEP-njzqvmuow-83">
          <mxGeometry relative="1" as="geometry">
            <Array as="points">
              <mxPoint x="60" y="-940" />
              <mxPoint x="110" y="-940" />
              <mxPoint x="110" y="-480" />
            </Array>
          </mxGeometry>
        </mxCell>
        <mxCell id="3SE-ewiuEP-njzqvmuow-67" value="Map" style="rounded=1;whiteSpace=wrap;html=1;fontSize=16;" vertex="1" parent="1">
          <mxGeometry y="-1050" width="120" height="60" as="geometry" />
        </mxCell>
        <mxCell id="3SE-ewiuEP-njzqvmuow-68" style="edgeStyle=orthogonalEdgeStyle;rounded=0;orthogonalLoop=1;jettySize=auto;html=1;exitX=0.5;exitY=1;exitDx=0;exitDy=0;entryX=0.5;entryY=0;entryDx=0;entryDy=0;fontSize=16;" edge="1" parent="1" source="3SE-ewiuEP-njzqvmuow-25" target="3SE-ewiuEP-njzqvmuow-64">
          <mxGeometry relative="1" as="geometry">
            <mxPoint x="-740" y="-710" as="targetPoint" />
          </mxGeometry>
        </mxCell>
        <mxCell id="3SE-ewiuEP-njzqvmuow-69" style="edgeStyle=orthogonalEdgeStyle;rounded=0;orthogonalLoop=1;jettySize=auto;html=1;exitX=0;exitY=0.5;exitDx=0;exitDy=0;entryX=1;entryY=0.5;entryDx=0;entryDy=0;" edge="1" parent="1" source="3SE-ewiuEP-njzqvmuow-70" target="3SE-ewiuEP-njzqvmuow-81">
          <mxGeometry relative="1" as="geometry" />
        </mxCell>
        <mxCell id="3SE-ewiuEP-njzqvmuow-70" value="goal pose /&lt;div&gt;waypoint&lt;/div&gt;" style="rounded=1;whiteSpace=wrap;html=1;fontSize=16;" vertex="1" parent="1">
          <mxGeometry x="-310" y="-205" width="120" height="60" as="geometry" />
        </mxCell>
        <mxCell id="3SE-ewiuEP-njzqvmuow-71" value="cmd_vel" style="rounded=1;whiteSpace=wrap;html=1;fontSize=16;" vertex="1" parent="1">
          <mxGeometry x="-850" y="-60" width="120" height="60" as="geometry" />
        </mxCell>
        <mxCell id="3SE-ewiuEP-njzqvmuow-72" style="edgeStyle=orthogonalEdgeStyle;rounded=0;orthogonalLoop=1;jettySize=auto;html=1;exitX=0.5;exitY=1;exitDx=0;exitDy=0;entryX=1;entryY=0.25;entryDx=0;entryDy=0;startArrow=classic;startFill=1;" edge="1" parent="1" source="3SE-ewiuEP-njzqvmuow-73" target="3SE-ewiuEP-njzqvmuow-81">
          <mxGeometry relative="1" as="geometry">
            <Array as="points">
              <mxPoint x="-330" y="-280" />
              <mxPoint x="-420" y="-280" />
              <mxPoint x="-420" y="-202" />
            </Array>
          </mxGeometry>
        </mxCell>
        <mxCell id="3SE-ewiuEP-njzqvmuow-73" value="Recovery sever" style="rounded=1;whiteSpace=wrap;html=1;fontSize=16;" vertex="1" parent="1">
          <mxGeometry x="-390" y="-360" width="120" height="60" as="geometry" />
        </mxCell>
        <mxCell id="3SE-ewiuEP-njzqvmuow-74" style="edgeStyle=orthogonalEdgeStyle;rounded=0;orthogonalLoop=1;jettySize=auto;html=1;exitX=0.5;exitY=1;exitDx=0;exitDy=0;entryX=0.907;entryY=0.001;entryDx=0;entryDy=0;entryPerimeter=0;startArrow=classic;startFill=1;" edge="1" parent="1" source="3SE-ewiuEP-njzqvmuow-75" target="3SE-ewiuEP-njzqvmuow-81">
          <mxGeometry relative="1" as="geometry" />
        </mxCell>
        <mxCell id="3SE-ewiuEP-njzqvmuow-75" value="planner server" style="rounded=1;whiteSpace=wrap;html=1;fontSize=16;" vertex="1" parent="1">
          <mxGeometry x="-530" y="-360" width="120" height="60" as="geometry" />
        </mxCell>
        <mxCell id="3SE-ewiuEP-njzqvmuow-76" style="edgeStyle=orthogonalEdgeStyle;rounded=0;orthogonalLoop=1;jettySize=auto;html=1;exitX=0.5;exitY=1;exitDx=0;exitDy=0;entryX=0.388;entryY=0.002;entryDx=0;entryDy=0;entryPerimeter=0;startArrow=classic;startFill=1;" edge="1" parent="1" source="3SE-ewiuEP-njzqvmuow-77" target="3SE-ewiuEP-njzqvmuow-81">
          <mxGeometry relative="1" as="geometry" />
        </mxCell>
        <mxCell id="3SE-ewiuEP-njzqvmuow-77" value="behavior server" style="rounded=1;whiteSpace=wrap;html=1;fontSize=16;" vertex="1" parent="1">
          <mxGeometry x="-670" y="-360" width="120" height="60" as="geometry" />
        </mxCell>
        <mxCell id="3SE-ewiuEP-njzqvmuow-78" style="edgeStyle=orthogonalEdgeStyle;rounded=0;orthogonalLoop=1;jettySize=auto;html=1;exitX=0.5;exitY=1;exitDx=0;exitDy=0;entryX=0;entryY=0.5;entryDx=0;entryDy=0;startArrow=classic;startFill=1;" edge="1" parent="1" source="3SE-ewiuEP-njzqvmuow-80" target="3SE-ewiuEP-njzqvmuow-81">
          <mxGeometry relative="1" as="geometry" />
        </mxCell>
        <mxCell id="3SE-ewiuEP-njzqvmuow-79" style="edgeStyle=orthogonalEdgeStyle;rounded=0;orthogonalLoop=1;jettySize=auto;html=1;exitX=0.25;exitY=1;exitDx=0;exitDy=0;entryX=0.5;entryY=0;entryDx=0;entryDy=0;" edge="1" parent="1" source="3SE-ewiuEP-njzqvmuow-80" target="3SE-ewiuEP-njzqvmuow-71">
          <mxGeometry relative="1" as="geometry">
            <Array as="points">
              <mxPoint x="-790" y="-60" />
            </Array>
          </mxGeometry>
        </mxCell>
        <mxCell id="3SE-ewiuEP-njzqvmuow-80" value="DWB controller" style="rounded=1;whiteSpace=wrap;html=1;fontSize=16;" vertex="1" parent="1">
          <mxGeometry x="-820" y="-360" width="120" height="60" as="geometry" />
        </mxCell>
        <mxCell id="3SE-ewiuEP-njzqvmuow-81" value="behavior tree navigator server" style="rounded=1;whiteSpace=wrap;html=1;fontSize=16;" vertex="1" parent="1">
          <mxGeometry x="-715" y="-230" width="270" height="110" as="geometry" />
        </mxCell>
        <mxCell id="3SE-ewiuEP-njzqvmuow-82" style="edgeStyle=orthogonalEdgeStyle;rounded=0;orthogonalLoop=1;jettySize=auto;html=1;exitX=0;exitY=0.5;exitDx=0;exitDy=0;entryX=0.5;entryY=1;entryDx=0;entryDy=0;strokeColor=light-dark(#3333ff, #ededed);strokeWidth=5;" edge="1" parent="1" source="3SE-ewiuEP-njzqvmuow-83" target="3SE-ewiuEP-njzqvmuow-58">
          <mxGeometry relative="1" as="geometry">
            <Array as="points">
              <mxPoint x="-360" y="-480" />
              <mxPoint x="-360" y="-620" />
              <mxPoint x="-440" y="-620" />
            </Array>
            <mxPoint x="-470" y="-755" as="targetPoint" />
          </mxGeometry>
        </mxCell>
        <mxCell id="3SE-ewiuEP-njzqvmuow-83" value="AMCL" style="rounded=1;whiteSpace=wrap;html=1;fontSize=16;" vertex="1" parent="1">
          <mxGeometry x="-320" y="-510" width="120" height="60" as="geometry" />
        </mxCell>
        <mxCell id="3SE-ewiuEP-njzqvmuow-84" style="edgeStyle=orthogonalEdgeStyle;rounded=0;orthogonalLoop=1;jettySize=auto;html=1;exitX=0.5;exitY=1;exitDx=0;exitDy=0;entryX=0.5;entryY=0;entryDx=0;entryDy=0;" edge="1" parent="1" source="3SE-ewiuEP-njzqvmuow-25" target="3SE-ewiuEP-njzqvmuow-83">
          <mxGeometry relative="1" as="geometry">
            <Array as="points">
              <mxPoint x="-740" y="-690" />
              <mxPoint x="-710" y="-690" />
              <mxPoint x="-710" y="-600" />
              <mxPoint x="-260" y="-600" />
            </Array>
          </mxGeometry>
        </mxCell>
        <mxCell id="3SE-ewiuEP-njzqvmuow-85" value="" style="endArrow=none;dashed=1;html=1;rounded=0;strokeWidth=3;" edge="1" parent="1">
          <mxGeometry width="50" height="50" relative="1" as="geometry">
            <mxPoint x="-170" y="-590" as="sourcePoint" />
            <mxPoint x="-170" y="-590" as="targetPoint" />
            <Array as="points">
              <mxPoint x="-170" y="-740" />
              <mxPoint x="-170" y="-1080" />
              <mxPoint x="-30" y="-1080" />
              <mxPoint x="-30" y="-850" />
              <mxPoint x="90" y="-850" />
              <mxPoint x="90" y="-590" />
            </Array>
          </mxGeometry>
        </mxCell>
        <mxCell id="3SE-ewiuEP-njzqvmuow-92" value="&lt;font style=&quot;font-size: 16px;&quot;&gt;Navigation2&lt;/font&gt;" style="text;html=1;align=center;verticalAlign=middle;whiteSpace=wrap;rounded=0;" vertex="1" parent="1">
          <mxGeometry x="-60" y="-240" width="60" height="30" as="geometry" />
        </mxCell>
      </root>
    </mxGraphModel>
  </diagram>
</mxfile>
